{"title":"St Georges Day 2012 DVDRiP XViD-NoGRP","uid":7951791,"size":733462867,"categoryP":"video","categoryS":"movies","magnet":"?xt=urn:btih:2008d390dcffa6ded31bd5b63e96ec5eeaf5b530&amp;dn=St+Georges+Day+2012+DVDRiP+XViD-NoGRP&amp;tr=udp%3A%2F%2Ftracker.openbittorrent.com%3A80&amp;tr=udp%3A%2F%2Fopen.demonii.com%3A1337&amp;tr=udp%3A%2F%2Ftracker.coppersurfer.tk%3A6969&amp;tr=udp%3A%2F%2Fexodus.desync.com%3A6969","seeders":0,"leechers":1,"uploader":"juggs99","files":2,"time":1356296737,"description":" &lt;a href=&quot;http://img441.imageshack.us/img441/3281/sgdy.jpg&quot; rel=&quot;nofollow&quot; target=&quot;_NEW&quot;&gt;http://img441.imageshack.us/img441/3281/sgdy.jpg&lt;/a&gt;\n\n\nGenre : Action / Crime / Thriller\n\nPlot : Infamous London gangster cousins, Micky Mannock and Ray Collishaw, are at the top of the food chain, when their world is turned upside down as they lose a shipment of the Russian Mafia's cocaine in rough seas. Set in London, Amsterdam and Berlin, the story races across Europe at breakneck speed as Micky and Ray attempt to stay one step ahead of the Police. Can they pull off a daring diamond heist in time to put things right and retire to a &quot;legitimate&quot; way of life.\n\n\nFormat                                 : AVI \nFormat/Info                              : Audio Video Interleave \nFile size                                : 699 MiB \nDuration                               : 1h 44mn \nOverall bit rate mode                    : Variable \nOverall bit rate                       : 937 Kbps \n\nVideo \nID                                     : 0 \nFormat                                 : MPEG-4 Visual \nFormat profile                         : Advanced Simple@L5 \nFormat settings, BVOP                    : 1 \nFormat settings, QPel                    : No \nFormat settings, GMC                   : No warppoints \nFormat settings, Matrix                  : Custom \nCodec ID                               : XVID \nCodec ID/Hint                            : XviD \nDuration                               : 1h 44mn \nBit rate                               : 812 Kbps \nWidth                                    : 640 pixels \nHeight                                 : 272 pixels \nDisplay aspect ratio                   : 2.35:1 \nFrame rate                             : 25.000 fps \nColor space                              : YUV \nChroma subsampling                     : 4:2:0 \nBit depth                                : 8 bits \nScan type                                : Progressive \nCompression mode                       : Lossy \nBits/(Pixel*Frame)                     : 0.187 \nStream size                              : 607 MiB (87%) \n\nAudio \nID                                     : 1 \nFormat                                 : MPEG Audio \nFormat version                         : Version 1 \nFormat profile                         : Layer 3 \nMode                                   : Joint stereo \nMode extension                         : MS Stereo \nCodec ID                               : 55 \nCodec ID/Hint                            : MP3 \nDuration                               : 1h 44mn \nBit rate mode                            : Variable \nBit rate                               : 112 Kbps \nNominal bit rate                       : 128 Kbps \nChannel(s)                             : 2 channels \nSampling rate                            : 48.0 KHz \nCompression mode                       : Lossy \nStream size                              : 83.2 MiB (12%) \nAlignment                                : Aligned on interleaves \nInterleave, duration                   : 24 ms (0.60 video frame) \nInterleave, preload duration           : 165 ms\n &lt;a href=&quot;\nhttp://www.imdb.com/title/tt1329232/&quot; rel=&quot;nofollow&quot; target=&quot;_NEW&quot;&gt;\nhttp://www.imdb.com/title/tt1329232/&lt;/a&gt;\n\n\n &lt;a href=&quot;\nhttp://img43.imageshack.us/img43/2853/vlcsnap2012122311h41m39.png&quot; rel=&quot;nofollow&quot; target=&quot;_NEW&quot;&gt;\nhttp://img43.imageshack.us/img43/2853/vlcsnap2012122311h41m39.png&lt;/a&gt; &lt;a href=&quot;\nhttp://img405.imageshack.us/img405/8688/vlcsnap2012122311h42m07.png&quot; rel=&quot;nofollow&quot; target=&quot;_NEW&quot;&gt;\nhttp://img405.imageshack.us/img405/8688/vlcsnap2012122311h42m07.png&lt;/a&gt; &lt;a href=&quot;\nhttp://img821.imageshack.us/img821/2195/vlcsnap2012122311h41m00.png&quot; rel=&quot;nofollow&quot; target=&quot;_NEW&quot;&gt;\nhttp://img821.imageshack.us/img821/2195/vlcsnap2012122311h41m00.png&lt;/a&gt; &lt;a href=&quot;\nhttp://img202.imageshack.us/img202/8763/vlcsnap2012122311h41m29.png&quot; rel=&quot;nofollow&quot; target=&quot;_NEW&quot;&gt;\nhttp://img202.imageshack.us/img202/8763/vlcsnap2012122311h41m29.png&lt;/a&gt;","torrent":{"xt":"urn:btih:2008d390dcffa6ded31bd5b63e96ec5eeaf5b530","amp;dn":"St+Georges+Day+2012+DVDRiP+XViD-NoGRP","amp;tr":["udp%3A%2F%2Ftracker.openbittorrent.com%3A80","udp%3A%2F%2Fopen.demonii.com%3A1337","udp%3A%2F%2Ftracker.coppersurfer.tk%3A6969","udp%3A%2F%2Fexodus.desync.com%3A6969"],"infoHash":"2008d390dcffa6ded31bd5b63e96ec5eeaf5b530","infoHashBuffer":{"type":"Buffer","data":[32,8,211,144,220,255,166,222,211,27,213,182,62,150,236,94,234,245,181,48]},"announce":[],"urlList":[]}}